<?xml version="1.0" encoding="UTF-8" standalone="no"?>
<!-- Created with Inkscape (http://www.inkscape.org/) -->

<svg
   width="64pt"
   height="64pt"
   viewBox="0 0 22.577778 22.577778"
   version="1.1"
   id="svg831"
   inkscape:version="1.1.2 (b8e25be833, 2022-02-05)"
   sodipodi:docname="Export - Unblash - 64px.svg"
   inkscape:export-filename="E:\Icon Design\TR Icon Design Project\Carlos - Icon Design Project\Desember\Done\Flat\06 - Ampoule.png"
   inkscape:export-xdpi="576"
   inkscape:export-ydpi="576"
   xmlns:inkscape="http://www.inkscape.org/namespaces/inkscape"
   xmlns:sodipodi="http://sodipodi.sourceforge.net/DTD/sodipodi-0.dtd"
   xmlns="http://www.w3.org/2000/svg"
   xmlns:svg="http://www.w3.org/2000/svg"
   xmlns:rdf="http://www.w3.org/1999/02/22-rdf-syntax-ns#"
   xmlns:cc="http://creativecommons.org/ns#"
   xmlns:dc="http://purl.org/dc/elements/1.1/">
  <defs
     id="defs825">
    <pattern
       id="EMFhbasepattern"
       patternUnits="userSpaceOnUse"
       width="6"
       height="6"
       x="0"
       y="0" />
    <pattern
       id="EMFhbasepattern-9"
       patternUnits="userSpaceOnUse"
       width="6"
       height="6"
       x="0"
       y="0" />
    <pattern
       id="EMFhbasepattern-0"
       patternUnits="userSpaceOnUse"
       width="6"
       height="6"
       x="0"
       y="0" />
    <pattern
       id="EMFhbasepattern-7"
       patternUnits="userSpaceOnUse"
       width="6"
       height="6"
       x="0"
       y="0" />
    <pattern
       id="EMFhbasepattern-2"
       patternUnits="userSpaceOnUse"
       width="6"
       height="6"
       x="0"
       y="0" />
    <pattern
       id="EMFhbasepattern-98"
       patternUnits="userSpaceOnUse"
       width="6"
       height="6"
       x="0"
       y="0" />
    <pattern
       id="EMFhbasepattern-6"
       patternUnits="userSpaceOnUse"
       width="6"
       height="6"
       x="0"
       y="0" />
    <pattern
       id="EMFhbasepattern-01"
       patternUnits="userSpaceOnUse"
       width="6"
       height="6"
       x="0"
       y="0" />
    <pattern
       id="EMFhbasepattern-07"
       patternUnits="userSpaceOnUse"
       width="6"
       height="6"
       x="0"
       y="0" />
    <pattern
       id="EMFhbasepattern-8"
       patternUnits="userSpaceOnUse"
       width="6"
       height="6"
       x="0"
       y="0" />
    <pattern
       id="EMFhbasepattern-4"
       patternUnits="userSpaceOnUse"
       width="6"
       height="6"
       x="0"
       y="0" />
    <pattern
       id="EMFhbasepattern-40"
       patternUnits="userSpaceOnUse"
       width="6"
       height="6"
       x="0"
       y="0" />
    <pattern
       id="EMFhbasepattern-08"
       patternUnits="userSpaceOnUse"
       width="6"
       height="6"
       x="0"
       y="0" />
    <pattern
       id="EMFhbasepattern-04"
       patternUnits="userSpaceOnUse"
       width="6"
       height="6"
       x="0"
       y="0" />
    <pattern
       id="EMFhbasepattern-014"
       patternUnits="userSpaceOnUse"
       width="6"
       height="6"
       x="0"
       y="0" />
    <pattern
       id="EMFhbasepattern-27"
       patternUnits="userSpaceOnUse"
       width="6"
       height="6"
       x="0"
       y="0" />
    <pattern
       id="EMFhbasepattern-09"
       patternUnits="userSpaceOnUse"
       width="6"
       height="6"
       x="0"
       y="0" />
    <pattern
       id="EMFhbasepattern-5"
       patternUnits="userSpaceOnUse"
       width="6"
       height="6"
       x="0"
       y="0" />
    <pattern
       id="EMFhbasepattern-018"
       patternUnits="userSpaceOnUse"
       width="6"
       height="6"
       x="0"
       y="0" />
  </defs>
  <sodipodi:namedview
     id="base"
     pagecolor="#ffffff"
     bordercolor="#666666"
     borderopacity="1.0"
     inkscape:pageopacity="0.0"
     inkscape:pageshadow="2"
     inkscape:zoom="3.421875"
     inkscape:cx="42.666667"
     inkscape:cy="42.666667"
     inkscape:document-units="pt"
     inkscape:current-layer="layer1"
     showgrid="false"
     units="pt"
     inkscape:window-width="958"
     inkscape:window-height="1041"
     inkscape:window-x="953"
     inkscape:window-y="0"
     inkscape:window-maximized="0"
     inkscape:pagecheckerboard="true"
     inkscape:showpageshadow="false"
     inkscape:object-paths="true"
     inkscape:snap-intersection-paths="true"
     inkscape:snap-smooth-nodes="true"
     inkscape:snap-midpoints="true"
     showguides="true"
     inkscape:snap-bbox="true"
     inkscape:bbox-nodes="true"
     inkscape:snap-nodes="false"
     inkscape:snap-global="true"
     inkscape:snap-others="false">
    <inkscape:grid
       type="xygrid"
       id="grid1378" />
    <sodipodi:guide
       position="0.97013831,21.607643"
       orientation="78.000048,0"
       id="guide1380"
       inkscape:locked="false" />
    <sodipodi:guide
       position="0.97013831,0.97013129"
       orientation="0,78.000005"
       id="guide1382"
       inkscape:locked="false" />
    <sodipodi:guide
       position="21.607639,0.97013129"
       orientation="-78.000048,0"
       id="guide1384"
       inkscape:locked="false" />
    <sodipodi:guide
       position="21.607639,21.607643"
       orientation="0,-78.000005"
       id="guide1386"
       inkscape:locked="false" />
  </sodipodi:namedview>
  <metadata
     id="metadata828">
    <rdf:RDF>
      <cc:Work
         rdf:about="">
        <dc:format>image/svg+xml</dc:format>
        <dc:type
           rdf:resource="http://purl.org/dc/dcmitype/StillImage" />
      </cc:Work>
    </rdf:RDF>
  </metadata>
  <g
     inkscape:label="Icon"
     inkscape:groupmode="layer"
     id="layer1"
     transform="translate(0,-274.42223)">
    <g
       id="g759575"
       style="display:inline;stroke-width:0.797504"
       transform="matrix(1.2539114,0,0,1.2539114,38.494113,-76.051258)">
      <path
         style="color:#000000;fill:#ffa185;fill-opacity:1;stroke-width:0.797504;stroke-linecap:round;stroke-linejoin:round;-inkscape-stroke:none"
         d="m -17.050781,289.29105 1.376953,-0.79493 c 0.363764,-0.21017 0.591797,-0.59932 0.591797,-1.02148 v -0.26367 c 0,-0.72749 -0.594776,-1.32422 -1.322266,-1.32422 h -0.529297 z"
         id="path97336"
         sodipodi:nodetypes="ccssscc" />
      <path
         style="fill:#ffa185;fill-opacity:1;stroke:none;stroke-width:0.422013;stroke-linecap:round;stroke-linejoin:round;stroke-opacity:1;stop-color:#000000"
         d="m -19.05,291.90459 v 3.77249 h -5.291667 v -3.77249 z"
         id="path48136" />
      <path
         style="color:#000000;fill:#ffa185;fill-opacity:1;stroke-width:0.797504;stroke-linecap:round;stroke-linejoin:round;-inkscape-stroke:none"
         d="m -26.458985,285.88671 -0.529296,1e-5 c -0.727491,0 -1.322266,0.59673 -1.322266,1.32422 v 0.26367 c 0,0.42216 0.228032,0.81131 0.591797,1.02148 l 1.376953,0.79493 z"
         id="path97330"
         sodipodi:nodetypes="ccssccc" />
      <path
         style="color:#000000;fill:#ffccbc;stroke-width:0.797504;stroke-linecap:round;stroke-linejoin:round;-inkscape-stroke:none"
         d="m -22.464844,282.37891 a 0.26460996,0.26460996 0 0 0 -0.179687,0.0117 l -4.146485,1.83399 a 0.26460996,0.26460996 0 0 0 -0.15625,0.26367 l 0.277344,3.28906 c 0.102579,1.38241 0.420127,2.40599 1.333985,3.45313 a 0.26460996,0.26460996 0 0 0 0.201171,0.0918 h 6.878907 a 0.26460996,0.26460996 0 0 0 0.199218,-0.0918 c 0.91432,-1.04767 1.231571,-2.0716 1.333985,-3.45508 a 0.26460996,0.26460996 0 0 0 0,-0.0156 l 0.06055,-3.49219 a 0.26460996,0.26460996 0 0 0 -0.191407,-0.25977 z"
         id="path97342" />
      <path
         style="color:#000000;fill:#f6fbfe;stroke-width:0.797504;stroke-linecap:round;stroke-linejoin:round;-inkscape-stroke:none"
         d="m -26.666014,286.31641 1.958985,2.48632 c 0.09015,0.11473 0.256178,0.13482 0.371094,0.0449 0.114745,-0.0901 0.134842,-0.25618 0.04492,-0.3711 L -26.25,285.98828 Z"
         id="path42181"
         sodipodi:nodetypes="cccccc" />
      <path
         style="color:#000000;fill:#f6fbfe;stroke-width:0.797504;stroke-linecap:round;stroke-linejoin:round;-inkscape-stroke:none"
         d="m -17.140625,285.98826 -1.958984,2.48828 c -0.09037,0.11441 -0.07115,0.28037 0.04297,0.3711 0.115233,0.0913 0.282758,0.0711 0.373047,-0.0449 l 1.958985,-2.48632 z"
         id="path42638"
         sodipodi:nodetypes="cccccc" />
      <path
         style="color:#000000;fill:#5b6571;stroke-width:3.01419;stroke-linecap:round;stroke-linejoin:round;-inkscape-stroke:none"
         d="m -79.392538,1.3652341 c -1.571734,-0.43079766 -3.06584,-0.57710389 -4.492208,-0.56640613 -1.833658,0.0325272 -3.554962,0.37276513 -5.185566,0.83984393 -2.898857,0.8302488 -5.537643,2.0382594 -8.171876,2.7226562 -2.634228,0.6844347 -5.226702,0.8821364 -8.258772,-0.2343751 -0.88671,-0.3102798 -1.499,0.2557759 -1.499,0.8691405 0,1.1558929 0.28081,2.584069 1.14453,3.8984374 0.454,0.6908724 1.07563,1.3372081 1.87695,1.8789071 -2.01572,0.389999 -3.81845,0.311703 -5.38771,-0.558594 -0.29372,-0.214357 -0.63611,-0.2720306 -0.94826,-0.169922 -0.52833,0.173595 -0.81354,0.744883 -0.63477,1.271484 1.08981,3.26942 3.74006,4.942431 6.12891,5.792969 -1.81677,0.895035 -3.85111,0.899248 -6.18164,0.894531 -0.54922,0.0022 -0.99392,0.446869 -0.99606,0.996094 -8e-4,0.300182 0.13328,0.584848 0.38574,0.800781 1.98851,1.992483 4.17542,4.145447 7.6455,4.669924 4.631663,0.0078 8.631378,-0.733375 11.818362,-2.384763 2.271153,-1.176837 4.121619,-2.841496 5.400391,-4.976563 0.856088,1.841332 2.445119,3.39973 4.439453,4.636719 2.960425,1.836245 6.871893,3.075904 11.132811,3.732415 1.403278,0.136183 4.903665,0.504523 9.367185,-1.466803 0.258258,-0.149105 0.512427,-0.2316 0.642578,-0.457028 0.605167,-0.907767 0.83464,-2.084466 0.863282,-3.431641 0.02872,-1.347137 -0.179335,-2.858409 -0.664063,-4.347656 -0.912673,-2.803994 -2.998024,-5.470276 -6.303712,-6.4931646 -4.576625,-4.5726149 -8.52952,-6.9322682 -12.122055,-7.9169863 z"
         transform="matrix(0.26458334,0,0,0.26458334,0,280.06666)"
         id="path96484"
         sodipodi:nodetypes="ccccccscccccccccsccccccccc" />
      <path
         style="color:#000000;fill:#e2f0fa;stroke-width:0.797504;stroke-linecap:round;stroke-linejoin:round;-inkscape-stroke:none"
         d="m -21.695312,287.80859 c -0.377417,-0.008 -0.741116,0.0196 -1.091797,0.0742 l -1.611328,0.43946 c -0.58974,0.16084 -1.001954,0.69926 -1.001954,1.31054 v 1.81055 c 0,0.42145 0.225375,0.81182 0.589844,1.02344 l 1.386719,0.80664 c 0.423564,0.24593 1.069142,0.32226 1.728516,0.32226 0.659373,0 1.302998,-0.0763 1.726562,-0.32226 l 1.388672,-0.80664 c 0.364466,-0.21162 0.587893,-0.60198 0.587891,-1.02344 v -1.81055 c 2e-6,-0.61128 -0.41026,-1.1497 -1,-1.31054 l -1.613282,-0.43946 c -0.36731,-0.0762 -0.738522,-0.0706 -1.089843,-0.0742 z"
         id="path97878"
         sodipodi:nodetypes="ccsssccsccccccc" />
      <path
         id="path43422"
         style="color:#000000;fill:#c8dae5;stroke-width:3.01419;stroke-linecap:round;stroke-linejoin:round;-inkscape-stroke:none"
         d="m -88.369141,36.443359 c -0.528599,0.152317 -0.834911,0.702981 -0.685547,1.232422 0.151467,0.529387 0.702397,0.836721 1.232422,0.6875 1.635205,-0.467225 3.272972,-0.935118 4.908204,-1.402343 0.597497,-0.170457 1.234533,-0.170457 1.832031,0 1.635227,0.467225 3.265185,0.935118 4.90039,1.402343 0.532512,0.154249 1.088874,-0.15416 1.240235,-0.6875 0.149364,-0.529441 -0.156948,-1.080105 -0.685547,-1.232422 -1.635232,-0.467225 -3.274955,-0.935118 -4.910156,-1.402343 -0.478164,-0.13663 -0.969213,-0.205078 -1.460938,-0.205078 -0.491725,0 -0.982774,0.06845 -1.464843,0.205078 -1.639112,0.467225 -3.271019,0.935118 -4.906251,1.402343 z m 6.291016,2.34961 c -0.378559,0.0066 -0.755666,0.06291 -1.123047,0.167969 l -2.576172,0.738281 c -0.529387,0.151467 -0.836721,0.702397 -0.6875,1.232422 0.14878,0.535708 0.705959,0.847202 1.240235,0.693359 l 2.576171,-0.738281 c 0.424774,-0.121323 0.876004,-0.121323 1.300782,0 l 2.576172,0.738281 c 0.531783,0.1488 1.083518,-0.161605 1.232422,-0.693359 0.149221,-0.530025 -0.158113,-1.080955 -0.6875,-1.232422 l -2.576172,-0.738281 c -0.416365,-0.119067 -0.846358,-0.175411 -1.275391,-0.167969 z m 0,4.074219 c -0.753192,0 -1.141388,0.174843 -1.765625,0.353515 -0.532551,0.152217 -0.839934,0.708309 -0.685547,1.240235 0.152217,0.532551 0.708309,0.839933 1.240235,0.685546 l 0.640624,-0.183593 c 0.424706,-0.121323 0.876072,-0.121323 1.300782,0 l 0.640625,0.183593 c 0.530063,0.150615 1.082079,-0.155963 1.234375,-0.685546 0.154249,-0.532512 -0.02939,-1.053464 -0.6875,-1.240235 -0.621338,-0.166487 -1.253453,-0.353515 -1.917969,-0.353515 z"
         transform="matrix(0.26458334,0,0,0.26458334,0,280.06666)"
         sodipodi:nodetypes="ccccccccssccsccccccccccscccccccccc" />
      <path
         style="color:#000000;fill:#c8dae5;fill-opacity:1;stroke-width:0.797504;stroke-linecap:round;stroke-linejoin:round;-inkscape-stroke:none"
         d="m -23.546875,290.91353 a 0.2645835,0.2645835 0 0 0 -0.265625,0.26563 0.2645835,0.2645835 0 0 0 0.265625,0.26367 0.2645835,0.2645835 0 0 0 0.263672,-0.26367 0.2645835,0.2645835 0 0 0 -0.263672,-0.26563 z"
         id="path44781" />
      <path
         style="color:#000000;fill:#c8dae5;fill-opacity:1;stroke-width:0.797504;stroke-linecap:round;stroke-linejoin:round;-inkscape-stroke:none"
         d="m -19.842841,290.91353 a 0.2645835,0.2645835 0 0 0 -0.265625,0.26563 0.2645835,0.2645835 0 0 0 0.265625,0.26367 0.2645835,0.2645835 0 0 0 0.263672,-0.26367 0.2645835,0.2645835 0 0 0 -0.263672,-0.26563 z"
         id="path45004" />
      <path
         style="color:#000000;fill:#dc1c4b;stroke-width:0.797504;stroke-linecap:round;stroke-linejoin:round;-inkscape-stroke:none"
         d="m -29.632852,296.2481 v 0.22265 c -5.64e-4,0.14617 0.117499,0.26511 0.263671,0.26563 h 15.345703 c 0.146936,5.6e-4 0.266193,-0.11869 0.265625,-0.26563 v -0.22265 c 0,-0.6121 -0.376785,-1.16291 -0.950215,-1.38577 l -4.250996,-1.54983 c -0.139798,-0.0512 -0.294306,0.023 -0.341797,0.16406 0,0 -0.109544,0.33611 -0.464844,0.69141 -0.3553,0.3553 -0.937501,0.71484 -1.929687,0.71484 -0.992187,0 -1.574388,-0.35954 -1.929688,-0.71484 -0.3553,-0.3553 -0.464844,-0.69141 -0.464844,-0.69141 -0.04749,-0.1411 -0.201999,-0.21527 -0.341757,-0.16406 l -4.250956,1.54983 c -0.57343,0.22286 -0.950215,0.77367 -0.950215,1.38577 z"
         id="path98085"
         sodipodi:nodetypes="sccccscccssscccs" />
      <path
         style="color:#000000;fill:#c71a45;stroke-width:0.797504;stroke-linecap:round;stroke-linejoin:round;-inkscape-stroke:none"
         d="m -29.632812,296.20703 a 0.2645835,0.2645835 0 0 0 -0.265625,0.26367 0.2645835,0.2645835 0 0 0 0.265625,0.26563 h 15.874999 a 0.2645835,0.2645835 0 0 0 0.263672,-0.26563 0.2645835,0.2645835 0 0 0 -0.263672,-0.26367 z"
         id="path47765" />
      <path
         id="path98279"
         style="color:#000000;fill:#c8dae5;fill-opacity:1;stroke-width:3.01419;stroke-linecap:round;stroke-linejoin:round;-inkscape-stroke:none"
         d="m -84.375,29.320312 c -0.713458,0.04309 -1.268367,0.08955 -1.75,0.220704 l -6.089844,1.662109 c -1.367415,0.372936 -2.481109,1.281681 -3.138672,2.462891 2.254729,-0.961905 4.795563,-1.460971 7.228516,-2.125 0.481633,-0.13115 1.036542,-0.177617 1.75,-0.220704 1.632255,-0.08892 3.185104,-0.06238 4.746094,0 0.713457,0.04309 1.268367,0.08955 1.75,0.220704 l 6.097656,1.662109 c 2.228939,0.607899 3.779304,2.642775 3.779297,4.953125 v 6.841797 c 3e-6,0.713751 -0.171351,1.403179 -0.482422,2.019531 l 0.259766,-0.15039 c 1.377509,-0.799824 2.222663,-2.276221 2.222656,-3.869141 V 36.15625 c 7e-6,-2.31035 -1.550358,-4.345226 -3.779297,-4.953125 l -6.097656,-1.662109 c -0.481633,-0.13115 -1.036543,-0.177617 -1.75,-0.220704 -1.632779,-0.08849 -3.181794,-0.06262 -4.746094,0 z"
         transform="matrix(0.26458334,0,0,0.26458334,0,280.06666)"
         sodipodi:nodetypes="ccccccccccccccccccc" />
      <path
         style="color:#000000;fill:#c71a45;fill-opacity:1;stroke-width:0.797504;stroke-linecap:round;stroke-linejoin:round;-inkscape-stroke:none"
         d="m -14.287485,296.73634 h 0.264066 c 0.146925,5.6e-4 0.266173,-0.11869 0.265617,-0.26561 V 296.248 c 0,-0.6121 -0.376749,-1.16307 -0.950329,-1.38593 l -4.250903,-1.54975 c -0.192199,-0.0604 -0.313698,0.0602 -0.341597,0.16437 0,0 -0.05073,0.15418 -0.19327,0.36381 0.0019,3.1e-4 0.0038,6.5e-4 0.0057,10e-4 l 4.250903,1.54974 c 0.560894,0.21793 0.933515,0.74941 0.949813,1.3451 z"
         id="path757556"
         sodipodi:nodetypes="cccsccccccc" />
      <path
         style="color:#000000;fill:#c71a45;fill-opacity:1;stroke-width:0.797504;stroke-linecap:round;stroke-linejoin:round;-inkscape-stroke:none"
         d="m -28.153356,295.39124 c -0.560894,0.21793 -0.933515,0.74941 -0.949813,1.3451 h -0.264066 c -0.146925,5.6e-4 -0.266173,-0.11869 -0.265617,-0.26561 V 296.248 c 0,-0.6121 0.376749,-1.16307 0.950329,-1.38593 l 4.250903,-1.54975 c 0.165137,-0.0519 0.290177,0.0184 0.341597,0.16437 0,0 0.05073,0.15418 0.19042,0.36431 z"
         id="path757656"
         sodipodi:nodetypes="ccccsccccc" />
    </g>
  </g>
</svg>
